<svg id="Capa_1" enable-background="new 0 0 512 512" height="512" viewBox="0 0 512 512" width="512" xmlns="http://www.w3.org/2000/svg"><g><path d="m497 61h-482c-8.155 0-14.973 6.605-14.998 14.956 0 .015-.002.029-.002.044v360c0 .015.002.029.002.044.024 8.145 6.659 14.956 14.998 14.956h482c8.247 0 14.973-6.712 14.998-14.956 0-.015.002-.029.002-.044v-360c0-.015-.002-.029-.002-.044-.026-8.34-6.849-14.956-14.998-14.956zm-36.213 30-30 30h-349.574l-30-30zm-38.787 60v210h-332v-210zm-392-38.787 30 30v227.574l-30 30zm21.213 308.787 30-30h349.574l30 30zm430.787-21.213-30-30v-227.574l30-30z"/></g></svg>